HIERARCHY
ROOT Hips
{
	OFFSET -285.066589 92.472481 297.089996
	CHANNELS 6 Xposition Yposition Zposition Zrotation Yrotation Xrotation 
	JOINT LeftUpLeg
	{
		OFFSET 0.103457 1.857824 10.548504
		CHANNELS 3 Zrotation Yrotation Xrotation
		JOINT LeftLeg
		{
			OFFSET 43.500000 -0.000038 -0.000017
			CHANNELS 3 Zrotation Yrotation Xrotation
			JOINT LeftFoot
			{
				OFFSET 42.372200 0.000011 0.000019
				CHANNELS 3 Zrotation Yrotation Xrotation
				JOINT LeftToe
				{
					OFFSET 17.300011 0.000002 -0.000008
					CHANNELS 3 Zrotation Yrotation Xrotation
					End Site
					{
						OFFSET 0.000000 0.000000 0.000000
					}
				}
			}
		}
	}
	JOINT RightUpLeg
	{
		OFFSET 0.103457 1.857822 -10.548492
		CHANNELS 3 Zrotation Yrotation Xrotation
		JOINT RightLeg
		{
			OFFSET 43.500038 -0.000027 0.000036
			CHANNELS 3 Zrotation Yrotation Xrotation
			JOINT RightFoot
			{
				OFFSET 42.372261 0.000015 0.000010
				CHANNELS 3 Zrotation Yrotation Xrotation
				JOINT RightToe
				{
					OFFSET 17.299988 -0.000006 0.000008
					CHANNELS 3 Zrotation Yrotation Xrotation
					End Site
					{
						OFFSET 0.000000 0.000000 0.000000
					}
				}
			}
		}
	}
	JOINT Spine
	{
		OFFSET 6.901965 -2.603737 0.000006
		CHANNELS 3 Zrotation Yrotation Xrotation
		JOINT Spine1
		{
			OFFSET 12.588104 -0.000005 0.000007
			CHANNELS 3 Zrotation Yrotation Xrotation
			JOINT Spine2
			{
				OFFSET 12.343202 0.000026 -0.000008
				CHANNELS 3 Zrotation Yrotation Xrotation
				JOINT Neck
				{
					OFFSET 25.832890 -0.000029 -0.000007
					CHANNELS 3 Zrotation Yrotation Xrotation
					JOINT Head
					{
						OFFSET 11.766619 0.000021 0.000012
						CHANNELS 3 Zrotation Yrotation Xrotation
						End Site
						{
							OFFSET 0.000000 0.000000 0.000000
						}
					}
				}
				JOINT LeftShoulder
				{
					OFFSET 19.745909 -1.480377 6.000106
					CHANNELS 3 Zrotation Yrotation Xrotation
					JOINT LeftArm
					{
						OFFSET 11.284110 -0.000009 -0.000020
						CHANNELS 3 Zrotation Yrotation Xrotation
						JOINT LeftForeArm
						{
							OFFSET 33.000053 0.000014 0.000021
							CHANNELS 3 Zrotation Yrotation Xrotation
							JOINT LeftHand
							{
								OFFSET 25.200008 0.000006 -0.000004
								CHANNELS 3 Zrotation Yrotation Xrotation
								End Site
								{
									OFFSET 0.000000 0.000000 0.000000
								}
							}
						}
					}
				}
				JOINT RightShoulder
				{
					OFFSET 19.746101 -1.480381 -6.000081
					CHANNELS 3 Zrotation Yrotation Xrotation
					JOINT RightArm
					{
						OFFSET 11.284131 -0.000022 0.000003
						CHANNELS 3 Zrotation Yrotation Xrotation
						JOINT RightForeArm
						{
							OFFSET 33.000095 0.000014 0.000005
							CHANNELS 3 Zrotation Yrotation Xrotation
							JOINT RightHand
							{
								OFFSET 25.199774 0.000153 0.000423
								CHANNELS 3 Zrotation Yrotation Xrotation
								End Site
								{
									OFFSET 0.000000 0.000000 0.000000
								}
							}
						}
					}
				}
			}
		}
	}
}
MOTION
Frames: 17
Frame Time: 0.033333
351.596100 86.854958 80.662598 87.373849 -2.816335 -73.650032 154.804489 -2.709714 169.540404 -41.193752 -3.152994 0.262903 84.146988 0.847395 4.528211 21.454555 0.003090 -0.000001 159.272894 6.195204 -176.880289 -75.874065 -2.673159 -0.090724 86.058375 1.438541 6.520345 21.454563 -0.003114 -0.000013 11.671262 -1.007238 0.193408 13.329363 -2.030048 0.269356 13.011064 -2.028251 0.281631 20.505990 4.872640 -1.805921 -8.112005 0.286717 -2.104558 -175.958022 -81.940755 -5.661007 -21.938224 52.512660 22.566064 -36.951218 -19.580112 1.677900 7.148822 -12.078974 -1.087719 159.974000 73.188120 -19.145027 -11.958320 -49.626707 -25.916058 -44.361771 22.750506 -2.118393 2.985700 11.090842 -10.767396 
350.622711 87.106216 78.612427 87.210150 -2.376742 -72.908014 155.879438 -1.976803 170.056793 -41.307287 -3.346648 0.262342 85.605227 0.814444 4.631195 21.454553 0.003093 -0.000001 156.905401 5.657304 -176.281595 -70.832313 -2.125408 0.344728 88.344249 1.002695 6.667777 21.454563 -0.003112 -0.000019 11.728388 -0.995062 0.080651 13.445548 -1.992744 0.044970 13.127245 -1.992299 0.057023 20.515614 5.079601 -1.958264 -8.195876 0.279350 -2.269358 -176.932048 -82.244248 -4.677953 -23.510097 51.459666 19.430804 -39.790052 -20.476016 1.809495 6.857916 -14.239686 -1.359852 161.120010 73.192792 -17.972033 -11.575468 -49.577379 -26.400326 -44.297844 22.848060 -2.122954 3.153069 10.957944 -10.543095 
349.664795 87.398109 76.562378 87.257149 -2.032778 -72.258975 157.137053 -1.498603 170.032136 -41.181656 -3.171308 0.526534 87.003633 0.608005 4.805643 21.454553 0.003084 -0.000002 155.598717 4.874293 -175.727134 -63.270699 -1.539863 0.776893 89.829419 0.589031 6.695942 21.454558 -0.003108 -0.000016 11.766940 -0.931393 -0.008068 13.523820 -1.855458 -0.125089 13.205541 -1.856036 -0.113874 20.582416 5.352507 -2.016707 -8.392800 0.229528 -2.328397 -178.484017 -82.454098 -3.110951 -24.516500 50.530016 16.869135 -42.699751 -21.131287 1.933551 6.022612 -16.589099 -1.034709 162.411011 73.143410 -16.651972 -11.133159 -49.349302 -26.681378 -44.662235 22.885322 -2.136569 3.379769 10.472000 -10.404098 
348.764587 87.707771 74.479134 87.436721 -1.739009 -71.806031 158.488611 -1.341788 170.223286 -40.949491 -3.297486 0.702164 88.270366 0.472227 4.986868 21.454553 0.003097 -0.000000 154.753317 3.979713 -175.467792 -54.862497 -0.901272 0.320324 89.808655 0.680258 5.472046 21.454558 -0.003106 -0.000019 11.770983 -0.856134 -0.091067 13.532692 -1.695712 -0.281788 13.214439 -1.697243 -0.271534 20.715132 5.340032 -2.073569 -8.642304 0.334301 -2.426533 -179.157966 -82.474596 -2.428953 -24.587361 49.746126 15.364591 -45.311451 -21.656317 2.045989 5.095265 -18.323830 -0.533552 162.766973 73.096336 -16.291036 -10.648875 -49.145796 -26.669254 -45.245625 22.753264 -2.145724 3.517538 9.897916 -10.371752 
347.911713 87.861504 72.438950 87.297706 -1.379838 -71.577022 159.642913 -0.981987 169.748151 -41.106141 -3.059859 0.995141 89.410106 0.226159 5.014482 21.454553 0.003093 -0.000002 154.451204 3.469503 -175.254362 -46.662476 -0.691159 -1.454429 90.306794 1.915898 5.783321 21.454560 -0.003118 -0.000019 11.769555 -0.865570 -0.177216 13.531149 -1.704429 -0.454612 13.212908 -1.707023 -0.444290 20.543250 5.179920 -2.164280 -8.540953 0.619003 -2.589530 -178.420059 -82.444201 -3.176008 -24.238986 49.096376 14.603819 -47.558795 -21.927626 2.134467 4.605724 -18.623421 -0.739100 162.428947 73.073598 -16.637950 -10.335519 -48.969144 -26.344892 -45.807797 22.478648 -2.144861 3.705711 9.648725 -11.038901 
347.111786 88.154739 70.500153 87.961594 -1.394582 -71.435979 160.731112 -1.409889 169.749804 -41.359613 -2.844095 0.992895 90.331752 0.152289 4.826585 21.454555 0.003085 -0.000001 154.290886 1.840099 -174.434917 -41.376501 -0.906426 -1.192885 87.655929 1.367254 2.997763 21.454560 -0.003104 -0.000019 11.777223 -0.699957 -0.134817 13.544673 -1.379303 -0.350743 13.226492 -1.381258 -0.342403 20.487140 4.990353 -2.272127 -8.583239 0.893423 -2.774479 -177.941044 -82.287162 -3.657961 -23.705565 48.485942 14.225248 -49.492787 -21.671200 2.180118 4.032375 -18.766723 -0.658782 162.126957 72.912099 -16.953974 -10.343292 -48.633501 -26.323564 -45.991297 22.518589 -2.153290 3.654576 10.029792 -11.050619 
346.334015 88.137009 68.566254 87.880499 -1.591818 -71.244023 161.246655 -1.699709 170.254459 -43.416347 -3.573682 0.832269 90.434054 0.249345 4.668952 21.454553 0.003100 0.000001 154.590349 1.673705 -174.362736 -41.545158 -0.210337 0.859383 86.101399 -0.644979 -0.291252 21.454560 -0.003116 -0.000019 11.828546 -0.609918 -0.110962 13.646536 -1.202482 -0.293165 13.328370 -1.204088 -0.285891 20.712380 4.195736 -2.407919 -8.598382 1.533876 -3.090995 -176.306047 -81.894433 -5.307986 -23.301228 48.013628 14.569842 -50.916222 -21.482238 2.214979 3.679193 -18.894368 -0.700679 162.064953 72.945307 -17.015985 -10.570326 -48.473829 -26.444831 -45.738795 22.805151 -2.164556 3.253310 10.230343 -10.451264 
345.636292 87.893677 66.623482 87.384320 -1.972274 -70.794986 160.997326 -2.294915 169.885437 -47.380575 -4.383627 1.361900 89.272567 0.033859 5.094090 21.454553 0.003085 -0.000001 155.990620 1.827304 -172.138744 -42.792901 -1.898296 0.731663 87.613596 -0.712734 -1.394444 21.454562 -0.003128 -0.000021 11.907780 -0.554874 -0.090780 13.804556 -1.094970 -0.247208 13.486389 -1.096292 -0.240582 21.163401 3.452215 -2.801740 -8.331507 1.869093 -3.593972 -175.743008 -81.257511 -5.871009 -22.956102 47.528937 15.553545 -51.412948 -21.476166 2.231441 3.164958 -18.100686 -0.033004 162.446036 73.105099 -16.619027 -10.775025 -48.227901 -26.283809 -45.528081 22.676262 -2.149352 3.394931 9.939023 -9.873561 
345.053589 87.629349 64.695633 87.245934 -2.219513 -70.070016 158.861143 -4.057803 168.811882 -54.114243 -4.876007 2.624986 85.955335 -0.810332 4.390975 21.454550 0.003090 -0.000001 157.477948 2.143494 -171.478921 -43.638734 -1.997703 0.649989 90.217530 -0.568696 -1.072932 21.454557 -0.003111 -0.000016 11.904268 -0.455743 -0.080990 13.796957 -0.898575 -0.215825 13.478820 -0.899724 -0.210388 21.562591 3.303806 -3.138480 -8.007348 2.043392 -4.001483 -175.097049 -80.943834 -6.521978 -22.585778 47.612289 16.715821 -51.240554 -21.421966 2.221904 3.235239 -17.639747 0.514496 162.787956 72.936011 -16.276006 -10.836126 -47.706293 -26.126268 -45.346913 22.453390 -2.128823 3.706570 9.653840 -9.860661 
344.511108 87.487740 62.872711 86.976872 -2.369431 -69.583010 156.000114 -6.008616 167.922742 -61.016942 -4.924284 4.142520 80.648763 -2.407004 1.384712 21.454555 0.003095 -0.000000 158.520112 2.843088 -171.268783 -44.934127 -1.334241 0.575384 91.735916 -0.527492 -1.173552 21.454558 -0.003102 -0.000016 11.919274 -0.446368 -0.041574 13.826615 -0.884570 -0.136253 13.508474 -0.885240 -0.130901 21.824722 3.663491 -3.399356 -7.980682 1.962209 -4.276924 -173.921984 -81.203258 -7.717043 -22.260005 48.607472 17.203556 -51.019167 -21.299470 2.206074 3.242965 -17.276041 1.592310 163.387960 72.553227 -15.677987 -11.275810 -47.089083 -26.100777 -44.875166 22.603300 -2.124273 3.699234 9.689424 -9.868820 
343.950287 87.249634 61.038731 87.220088 -2.851396 -69.270993 153.835627 -7.966592 168.479306 -66.218698 -5.543406 4.270800 78.740962 -3.242033 -1.545189 21.454555 0.003093 -0.000001 159.644061 2.844414 -170.154451 -46.240500 -1.424245 0.247097 92.911453 -0.292269 -1.209290 21.454557 -0.003106 -0.000016 11.974918 -0.334580 0.023503 13.937206 -0.669567 0.006487 13.619097 -0.669385 0.010544 21.881413 3.635630 -3.559816 -8.028379 2.087849 -4.484189 -172.144031 -80.976660 -9.519057 -21.353787 49.446492 17.969987 -50.670073 -21.113848 2.181737 3.022334 -16.797370 2.242390 163.384040 72.515019 -15.685065 -11.830837 -46.673708 -25.749711 -44.572800 22.671437 -2.119558 3.549290 9.850992 -10.169752 
343.291901 87.115997 59.284111 87.146985 -2.979115 -69.047004 151.930345 -8.461598 167.489803 -68.343624 -4.271906 3.569546 78.434833 -2.649389 -1.018869 21.454551 0.003088 0.000001 160.554702 2.978892 -169.951485 -47.350648 -1.540454 0.306321 93.899692 -0.282858 -0.934934 21.454557 -0.003101 -0.000015 11.997168 -0.345043 0.053914 13.981531 -0.694083 0.065701 13.663410 -0.693553 0.069894 21.719397 3.701352 -3.689520 -7.945102 2.288584 -4.671015 -170.984975 -80.644658 -10.693003 -20.288706 49.976836 19.384336 -49.746563 -21.007929 2.143774 2.784928 -16.838431 1.886710 163.318976 72.520107 -15.750981 -12.402266 -46.317169 -25.283494 -44.618317 22.741058 -2.125593 3.454839 9.943155 -10.458502 
342.565796 86.926010 57.592239 87.288725 -3.141944 -68.861995 150.995716 -8.805296 167.791056 -66.367671 -4.306643 2.941679 80.167167 -2.271932 -1.364877 21.454555 0.003093 -0.000003 161.370473 2.930105 -169.621013 -48.486577 -1.782191 0.331416 94.715592 -0.240568 -0.557798 21.454555 -0.003100 -0.000016 12.033936 -0.350117 0.116130 14.054714 -0.711804 0.188796 13.736590 -0.710509 0.193103 21.305003 3.948102 -3.884765 -7.677215 2.383870 -4.887047 -170.463968 -80.503137 -11.220978 -19.402498 50.524214 20.787908 -48.301008 -21.054046 2.099645 3.412811 -16.092697 1.454087 164.064928 72.555296 -14.985006 -13.128617 -45.935730 -24.744309 -45.099992 22.759391 -2.141627 3.633171 10.041065 -10.450061 
341.795685 86.845657 55.919899 87.594553 -3.103735 -68.512022 150.108215 -9.005703 168.811923 -61.455098 -5.291014 2.096667 81.060057 -1.393040 -0.306743 21.454555 0.003097 -0.000000 162.137858 2.970398 -169.198894 -49.292772 -1.784847 0.301834 95.159459 -0.180886 -0.252002 21.454557 -0.003105 -0.000018 12.017767 -0.350849 0.158940 14.022076 -0.718413 0.274142 13.703954 -0.716606 0.278474 20.994591 4.239232 -4.043774 -7.562589 2.507634 -5.080536 -170.508050 -80.614305 -11.177001 -18.527119 51.235739 21.932957 -46.504832 -21.004094 2.039332 3.981731 -15.381574 1.627675 164.907978 72.567195 -14.120969 -13.616772 -45.555968 -24.332339 -45.948745 22.762285 -2.168277 3.784779 10.294591 -10.518458 
340.971313 86.768272 54.279049 88.135334 -3.053659 -68.107976 149.572004 -9.227304 169.282673 -54.862975 -6.055016 0.654657 81.852734 -0.213313 0.386037 21.454550 0.003094 0.000001 163.008475 2.936902 -168.735616 -49.766128 -1.539399 0.210863 95.573328 -0.106725 -0.105857 21.454558 -0.003111 -0.000017 11.980386 -0.325356 0.193796 13.947108 -0.671742 0.346908 13.629011 -0.669505 0.350966 20.846743 4.354584 -4.139223 -7.694198 2.919056 -5.295085 -169.499996 -80.821314 -12.201064 -17.602897 51.927463 22.958614 -44.707334 -20.831184 1.972801 4.800626 -14.831264 1.100051 164.845946 72.714706 -14.177991 -13.666280 -45.470895 -24.098174 -47.087860 22.893206 -2.213283 3.684751 10.414650 -10.944085 
340.066895 86.675331 52.640018 88.698066 -3.135674 -67.736024 149.276708 -9.180603 168.937803 -47.564269 -5.936781 -1.149359 81.362552 0.954239 0.018283 21.454550 0.003087 -0.000001 164.059081 2.814419 -167.993461 -50.108631 -1.602496 0.013183 95.914919 0.057514 0.169255 21.454558 -0.003117 -0.000017 11.976838 -0.311125 0.232253 13.939818 -0.648004 0.425293 13.621710 -0.645296 0.429206 20.694532 4.440107 -4.288605 -7.810886 3.385210 -5.580802 -167.711088 -80.894650 -14.015973 -16.689332 52.175416 24.187535 -43.026503 -20.753086 1.918023 5.178549 -13.748994 -0.139703 165.302968 72.916012 -13.699959 -13.986474 -45.384951 -24.164718 -48.101105 23.097507 -2.259979 3.514286 10.536054 -11.352724 
339.103790 86.415970 51.007622 89.405646 -3.289640 -67.495970 149.142235 -9.231694 168.050029 -40.763675 -5.189395 -1.864545 82.001714 1.358655 -0.316820 21.454550 0.003093 -0.000001 164.862653 2.412406 -167.492645 -50.875610 -1.846943 -0.049514 96.285805 0.160483 0.720662 21.454557 -0.003114 -0.000018 11.977001 -0.298034 0.301249 13.939796 -0.630262 0.564361 13.621702 -0.626707 0.568163 20.385470 4.457411 -4.465800 -7.678624 3.955851 -5.905256 -165.886963 -80.954558 -15.865985 -15.761785 52.023116 25.209689 -41.637082 -20.436840 1.857592 5.510151 -12.543088 -1.401559 165.484009 73.033212 -13.510013 -14.198701 -45.216795 -24.306895 -48.983491 23.292473 -2.302387 3.294784 10.498950 -11.398653 
